# xmcd
#
# Track frame offsets: 
#        155
#        16107
#        30965
#        41120
#        70177
#        82527
#        98427
#        109525
#        121225
#        131280
#        141825
#        154307
#        170690
#        184245
#
# Disc length: 2566 seconds
#
# Revision: 0
# Processed by: cddbd v1.5.2PL0 Copyright (c) Steve Scherf et al.
# Submitted via: ExactAudioCopyFreeDBPlugin 1.0
#
DISCID=a30a040e
DTITLE=Various Artist - Blue Eyed Soul of Texas [Home Cooking Records
DTITLE=Various Artist - Collectables]
DYEAR=1992
DGENRE=Soul
TTITLE0=Tommy Dar and The Sheetrockers  - I'm Tore Up
TTITLE1=Spatz - Dock of the Bay
TTITLE2=Count Jackson - Come Back Baby
TTITLE3=Roy Head - Slip Away
TTITLE4=Johnny Williams - Honey Child
TTITLE5=C. L. Weldon and The Pictures - Out of Left Field
TTITLE6=Eastwood Review - If I Had It to Do All Over Again, I'd Do It 
TTITLE6=All Over You 
TTITLE7=Rockin' Dave Allen - One of These Days
TTITLE8=The Jades - You're Gonna Miss Me
TTITLE9=The Sonics - You're the One
TTITLE10=The Believables - Too Good to Be True
TTITLE11=Countdown 5 - Willie and The Hand Jive
TTITLE12=Jim Straiton - Guilty One
TTITLE13=Skip and The Screamers -  Night Train
EXTD=
EXTT0=
EXTT1=
EXTT2=
EXTT3=
EXTT4=
EXTT5=
EXTT6=
EXTT7=
EXTT8=
EXTT9=
EXTT10=
EXTT11=
EXTT12=
EXTT13=
PLAYORDER=
